<svg xmlns="http://www.w3.org/2000/svg" viewBox="0 0 960 540" role="img" aria-labelledby="title desc">
  <title id="title">Conocimiento del Medio Secundaria</title>
  <desc id="desc">Portada ilustrada con planeta, grafica y sostenibilidad.</desc>
  <rect width="960" height="540" fill="#eefbf4"/>
  <rect x="50" y="50" width="860" height="440" rx="32" fill="#ffffff"/>
  <circle cx="280" cy="245" r="120" fill="#6ccff6"/>
  <path d="M232 180c40-6 55 24 90 20 18-2 30 9 38 24-12 23-42 34-75 37-47 4-78-10-103-35 8-23 20-42 50-46z" fill="#43aa8b"/>
  <path d="M250 280c26-6 42 18 70 15 23-2 44 10 56 31-20 27-55 42-94 42-43 0-77-15-103-42 12-22 41-40 71-46z" fill="#2a9d8f"/>
  <g>
    <rect x="520" y="170" width="270" height="200" rx="18" fill="#f8fbff" stroke="#d9e1f2" stroke-width="4"/>
    <path d="M560 315l55-60 45 30 85-95" fill="none" stroke="#ef476f" stroke-width="10" stroke-linecap="round" stroke-linejoin="round"/>
    <circle cx="560" cy="315" r="10" fill="#ef476f"/>
    <circle cx="615" cy="255" r="10" fill="#ef476f"/>
    <circle cx="660" cy="285" r="10" fill="#ef476f"/>
    <circle cx="745" cy="190" r="10" fill="#ef476f"/>
  </g>
  <text x="120" y="108" font-size="34" font-family="Arial, sans-serif" fill="#5b6472">Secundaria · Conocimiento del Medio</text>
  <text x="120" y="448" font-size="44" font-family="Arial, sans-serif" font-weight="700" fill="#2f6f4f">INVESTIGA · INTERPRETA · CUIDA</text>
</svg>
