<svg xmlns="http://www.w3.org/2000/svg" viewBox="0 0 960 540" role="img" aria-labelledby="title desc">
  <title id="title">Matematicas Primaria</title>
  <desc id="desc">Portada ilustrada con cuadricula, regla y simbolos matematicos.</desc>
  <rect width="960" height="540" fill="#e9f0ff"/>
  <rect x="50" y="50" width="860" height="440" rx="32" fill="#ffffff"/>
  <g stroke="#d9e1f2" stroke-width="2">
    <path d="M160 120h520M160 170h520M160 220h520M160 270h520M160 320h520M160 370h520"/>
    <path d="M160 120v250M240 120v250M320 120v250M400 120v250M480 120v250M560 120v250M640 120v250M720 120v250"/>
  </g>
  <rect x="720" y="130" width="90" height="250" rx="16" fill="#ffd166"/>
  <g fill="#355070" font-family="Arial, sans-serif" font-weight="700">
    <text x="190" y="190" font-size="58">+</text>
    <text x="285" y="190" font-size="58">-</text>
    <text x="370" y="190" font-size="58">x</text>
    <text x="455" y="190" font-size="58">/</text>
    <text x="530" y="190" font-size="58">=</text>
  </g>
  <text x="120" y="108" font-size="36" font-family="Arial, sans-serif" fill="#5b6472">Primaria · Matematicas</text>
  <text x="160" y="435" font-size="54" font-family="Arial, sans-serif" font-weight="700" fill="#264653">PROBLEMAS · MEDIDA · GEOMETRIA</text>
</svg>
