<svg xmlns="http://www.w3.org/2000/svg" viewBox="0 0 960 540" role="img" aria-labelledby="title desc">
  <title id="title">Lengua Primaria</title>
  <desc id="desc">Portada ilustrada con libro abierto, lineas de texto y lapiz.</desc>
  <rect width="960" height="540" fill="#fff0db"/>
  <rect x="50" y="50" width="860" height="440" rx="32" fill="#ffffff"/>
  <path d="M180 160c90-40 180-40 270 0v210c-90-40-180-40-270 0z" fill="#f8fbff" stroke="#c8d7eb" stroke-width="4"/>
  <path d="M450 160c90-40 180-40 270 0v210c-90-40-180-40-270 0z" fill="#f8fbff" stroke="#c8d7eb" stroke-width="4"/>
  <g stroke="#9fb3c8" stroke-width="3">
    <path d="M220 210h170M220 250h170M220 290h150"/>
    <path d="M500 210h170M500 250h170M500 290h150"/>
  </g>
  <polygon points="760,140 835,215 720,330 645,255" fill="#ff8c42"/>
  <rect x="625" y="255" width="58" height="34" rx="10" fill="#355070"/>
  <text x="120" y="108" font-size="36" font-family="Arial, sans-serif" fill="#5b6472">Primaria · Lengua</text>
  <text x="160" y="435" font-size="54" font-family="Arial, sans-serif" font-weight="700" fill="#ef476f">LEER · ESCRIBIR · EXPRESAR</text>
</svg>
